<svg width="200" height="60" viewBox="0 0 200 60" xmlns="http://www.w3.org/2000/svg">
  <defs>
    <linearGradient id="toothGradient" x1="0%" y1="0%" x2="0%" y2="100%">
      <stop offset="0%" style="stop-color:#1e40af;stop-opacity:1" />
      <stop offset="100%" style="stop-color:#0891b2;stop-opacity:1" />
    </linearGradient>
  </defs>
  
  <!-- Tooth Icon: Simplified molar shape -->
  <path d="M 10 12 
           C 10 8, 12 6, 15 5
           C 18 4, 22 4, 25 5
           C 26 5.5, 27 6, 28 7
           L 28 18
           C 28 20, 29 21, 30 21.5
           C 31 22, 32 22, 33 21.5
           C 34 21, 35 20, 35 18
           L 35 7
           C 35 6, 35.5 5.5, 36 5
           C 38 4, 40 4, 42 5
           C 45 6, 47 8, 47 12
           L 47 32
           C 47 34, 46 35, 44 36
           C 42 37, 40 38, 38 39
           C 36 40, 34 41, 32 42
           C 30 43, 28 43, 26 42
           C 24 41, 22 40, 20 39
           C 18 38, 16 37, 14 36
           C 12 35, 11 34, 11 32
           Z" 
        fill="none" 
        stroke="url(#toothGradient)" 
        stroke-width="2.5" 
        stroke-linecap="round" 
        stroke-linejoin="round"/>
  
  <!-- Text: Clinifly -->
  <text x="60" y="28" font-family="-apple-system, BlinkMacSystemFont, 'Segoe UI', Arial, sans-serif" font-size="24" font-weight="bold" fill="#1e40af">Clinifly</text>
  
  <!-- Text: DENTAL CLINIC MANAGEMENT -->
  <text x="60" y="42" font-family="-apple-system, BlinkMacSystemFont, 'Segoe UI', Arial, sans-serif" font-size="8" font-weight="600" fill="#0891b2" letter-spacing="0.8">DENTAL CLINIC MANAGEMENT</text>
</svg>